<svg width="1024" height="1024" viewBox="0 0 512 512" fill="none" xmlns="http://www.w3.org/2000/svg">
  <path d="M1 279C-4 214 19 151 65 96C104 50 153 25 204 25H337C382 30 414 47 440 76C461 98 462 121 451 141C441 158 424 167 403 164C387 162 377 148 361 134C353 128 344 124 335 122H212C170 127 140 147 117 178C97 205 90 240 94 282C99 318 119 350 150 374C184 401 219 398 291 398C311 396 328 386 342 377L424 296L452 365C458 383 448 400 435 410C408 441 379 460 347 474C315 487 283 490 203 487C158 480 118 463 82 436C32 396 5 341 1 279Z" fill="#111827"/>
  <path d="M247 289C247 271 255 259 266 251C273 247 278 245 284 245H364C364 253 369 258 371 259L412 282L372 322H274C258 317 247 304 247 289Z" fill="#111827"/>
  <path d="M382 245C381 239 386 235 393 233L489 205C500 200 507 200 511 207C514 213 507 224 504 231L468 326C466 333 460 335 455 326L437 274L386 249C384 248 383 247 382 245Z" fill="#111827"/>
</svg>
