<svg width="360" height="112" viewBox="0 0 360 112" fill="none" xmlns="http://www.w3.org/2000/svg">
  <defs>
    <linearGradient id="loop" x1="25" y1="27" x2="84" y2="93" gradientUnits="userSpaceOnUse"><stop stop-color="#5267FF"/><stop offset="0.52" stop-color="#6E5CF6"/><stop offset="1" stop-color="#A855F7"/></linearGradient>
    <linearGradient id="message" x1="42" y1="49" x2="96" y2="77" gradientUnits="userSpaceOnUse"><stop stop-color="#6576FF"/><stop offset="1" stop-color="#8B4FF2"/></linearGradient>
    <linearGradient id="gem" x1="78" y1="17" x2="96" y2="35" gradientUnits="userSpaceOnUse"><stop stop-color="#8B5CF6"/><stop offset="1" stop-color="#D946EF"/></linearGradient>
  </defs>
  <g transform="translate(8 8) scale(1.5)">
    <path d="M44.2 14.7C40.8 11.1 36 9 30.7 9C18.7 9 9 18.7 9 30.7C9 42.7 18.7 52.4 30.7 52.4C38.7 52.4 45.7 48 49.5 41.5" stroke="url(#loop)" stroke-width="10" stroke-linecap="round"/>
    <path d="M29.8 25.8H48C52 25.8 55.2 28.8 55.2 32.5V38.5L59 43.5C59.7 44.5 58.8 45.7 57.7 45.3L49.5 42.3H29.8C24.5 42.3 20.3 38.7 20.3 34C20.3 29.4 24.5 25.8 29.8 25.8Z" fill="url(#message)"/>
    <path d="M30.5 34H43.2" stroke="white" stroke-width="3.4" stroke-linecap="round"/><circle cx="48.5" cy="34" r="2.1" fill="white"/>
    <path d="M50.2 5.2L56.2 11.1L50.2 17L44.2 11.1L50.2 5.2Z" fill="url(#gem)"/><path d="M50.2 7.7L53.7 11.1L50.2 14.6L46.7 11.1L50.2 7.7Z" fill="white" fill-opacity="0.32"/>
  </g>
  <text x="116" y="76" fill="#111827" font-family="Plus Jakarta Sans,Inter,Arial,sans-serif" font-size="54" font-weight="800" letter-spacing="-3">Gema</text>
  <rect x="262" y="49" width="9" height="27" rx="4.5" fill="#111827"/>
  <path d="M266.5 34.5L273 41L266.5 47.5L260 41L266.5 34.5Z" fill="#7C5CF6"/>
</svg>
